<svg height="512pt" viewBox="-21 0 512 512" width="512pt" xmlns="http://www.w3.org/2000/svg"><path d="m64.117188 293.796875c-5.519532 0-10 4.476563-10 10v96.769531c0 5.523438 4.480468 10 10 10 5.523437 0 10-4.476562 10-10v-96.769531c0-5.523437-4.476563-10-10-10zm0 0"/><path d="m107.476562 400.660156v-106.175781c0-12.90625-6.15625-24.398437-15.675781-31.714844v-26.402343c12.492188-6 28.316407-19.929688 28.316407-44.542969v-28.273438c0-12.570312-6.460938-29.222656-16.859376-43.457031-6.96875-9.539062-21.320312-25.539062-39.144531-25.539062-28.328125 0-56 43.65625-56 68.996093v28.273438c0 24.613281 15.828125 38.542969 28.328125 44.546875v26.394531c-9.523437 7.316406-15.679687 18.808594-15.679687 31.71875v106.175781c-13.253907 12.140625-20.761719 29.085938-20.761719 47.222656 0 35.355469 28.761719 64.117188 64.117188 64.117188 35.355468 0 64.117187-28.761719 64.117187-64.117188 0-18.136718-7.507813-35.082031-20.757813-47.222656zm-58.386718-180.796875c-2.148438-.605469-20.976563-6.558593-20.976563-28.039062v-28.273438c0-8.28125 5.230469-21.003906 13.015625-31.660156 7.691406-10.53125 16.71875-17.335937 22.984375-17.335937 6.273438 0 15.296875 6.804687 22.992188 17.335937 7.78125 10.652344 13.011719 23.375 13.011719 31.660156v28.273438c0 21.480469-18.820313 27.433593-20.894532 28.023437-4.378906 1.164063-7.425781 5.128906-7.425781 9.660156v25.226563c-2.554687-.273437-5.113281-.238281-7.679687-.238281-2.5625 0-5.121094-.035156-7.675782.238281v-25.226563c0-4.53125-2.972656-8.476562-7.351562-9.644531zm15.027344 272.136719c-24.324219 0-44.117188-19.789062-44.117188-44.117188 0-13.632812 6.171875-26.289062 16.933594-34.730468 2.417968-1.894532 3.828125-4.796875 3.828125-7.867188v-110.800781c0-8.230469 5.007812-15.3125 12.132812-18.375 3.671875-1.582031 7.429688-1.605469 11.328125-1.605469 3.828125 0 7.507813.066406 11.113282 1.605469 7.128906 3.054687 12.140624 10.140625 12.140624 18.375v110.800781c0 3.070313 1.410157 5.972656 3.828126 7.867188 10.761718 8.441406 16.929687 21.097656 16.929687 34.730468 0 24.328126-19.789063 44.117188-44.117187 44.117188zm0 0"/><path d="m440 76.652344c.027344-.023438.054688-.054688.085938-.085938.671874-.675781 1.292968-1.390625 1.882812-2.125h9.28125c10.796875 0 19.578125-8.78125 19.578125-19.578125v-35.285156c0-10.796875-8.78125-19.578125-19.578125-19.578125h-295.132812c-10.796876 0-19.578126 8.78125-19.578126 19.578125v35.285156c0 10.796875 8.78125 19.578125 19.578126 19.578125h9.355468c.613282.761719 1.253906 1.496094 1.945313 2.183594.371093.367188.773437.878906 1.152343 1.453125 4.960938 7.632813 5.773438 23.769531 2.753907 30.257813-2.203125 4.742187-4.53125 7.363281-6.5 9.28125-.28125.273437-.558594.542968-.828125.792968-13.933594 13.011719-21.925782 31.652344-21.925782 51.148438v11.589844c0 .023437-.003906.050781-.003906.074218v253.476563c0 .027343.003906.054687.003906.078125v21.734375c0 30.59375 24.894532 55.484375 55.488282 55.484375h212.328125c30.597656 0 55.484375-24.890625 55.484375-55.484375v-286.949219c0-19.503906-7.992188-38.148438-21.910156-51.128906-.207032-.195313-.417969-.386719-.621094-.597656-.054688-.054688-.109375-.109376-.164063-.164063-2.097656-2.0625-4.339843-4.628906-6.554687-9.375-2.9375-6.328125-2.242188-21.929687 2.53125-29.855469.550781-.914062 1.035156-1.476562 1.347656-1.789062zm-283.460938-56.652344h294.289063v34.441406h-14.28125c-.019531 0-.039063-.003906-.0625-.003906h-265.535156c-.019531 0-.039063.003906-.058594.003906h-14.351563zm253.351563 471.996094h-212.332031c-19.566406 0-35.484375-15.917969-35.484375-35.484375v-11.8125h283.300781v11.8125c0 19.566406-15.921875 35.484375-35.484375 35.484375zm35.484375-322.433594v1.664062h-189.277344c-5.523437 0-10 4.476563-10 10 0 5.519532 4.476563 10 10 10h189.273438v233.476563h-283.300782v-233.476563h17.835938c5.523438 0 10-4.480468 10-10 0-5.523437-4.476562-10-10-10h-17.835938v-1.664062c0-13.976562 5.675782-27.289062 15.582032-36.539062.363281-.339844.730468-.691407 1.109375-1.0625 4.601562-4.484376 7.902343-9.175782 10.699219-15.195313 5.203124-11.171875 4.738281-29.097656-.457032-42.320313h229.453125c-5.113281 13.167969-5.566406 31.300782-.472656 42.285157 2.789063 5.980469 6.054687 10.648437 10.585937 15.121093.394532.402344.796876.785157 1.222657 1.183594 9.902343 9.234375 15.582031 22.550782 15.582031 36.527344zm0 0"/><path d="m340.636719 342.445312c.238281-.976562.378906-1.964843.394531-2.953124.0625-4.289063-2.71875-8.226563-6.777344-9.605469-5.230468-1.777344-10.910156 1.023437-12.683594 6.253906-.019531.050781-.898437 2.546875-3.074218 5.132813-2.628906 2.753906-6.828125 5.488281-13.199219 5.730468-6.375-.242187-10.574219-2.976562-13.203125-5.730468-2.175781-2.585938-3.058594-5.082032-3.074219-5.132813-1.773437-5.230469-7.453125-8.03125-12.683593-6.253906-2.917969.992187-5.246094 3.320312-6.242188 6.238281-2.023438 5.933594 2.222656 12.324219 5.6875 16.808594 5.601562 7.253906 14.914062 14.09375 28.601562 14.09375.308594 0 .605469-.019532.910157-.023438.308593.003906.601562.023438.914062.023438 13.6875 0 22.996094-6.839844 28.601563-14.09375 2.386718-2.917969 4.882812-6.621094 5.828125-10.488282zm0 0"/><path d="m330.625 303.527344c1.578125 3.851562 5.558594 6.386718 9.71875 6.167968 4.136719-.214843 7.742188-3.007812 9.027344-6.929687 1.300781-3.957031-.121094-8.464844-3.429688-10.988281-3.371094-2.5625-8.105468-2.730469-11.636718-.378906-3.914063 2.609374-5.492188 7.789062-3.679688 12.128906zm0 0"/><path d="m266.164062 303.527344c1.578126 3.851562 5.558594 6.386718 9.71875 6.167968 4.121094-.214843 7.765626-3.003906 9.03125-6.929687 1.28125-3.964844-.113281-8.457031-3.433593-10.988281-3.371094-2.5625-8.105469-2.730469-11.636719-.378906-3.914062 2.609374-5.488281 7.789062-3.679688 12.128906zm0 0"/><path d="m217.269531 266.539062c-19.742187.320313-35.710937 16.476563-35.710937 36.296876 0 18.386718 13.746094 33.613281 31.496094 35.976562 12.9375 38.371094 49.265624 66.078125 91.945312 66.078125s79.007812-27.707031 91.945312-66.078125c17.753907-2.359375 31.5-17.589844 31.5-35.976562 0-19.824219-15.96875-35.976563-35.714843-36.296876-15.550781-32.859374-49.027344-55.648437-87.730469-55.648437s-72.179688 22.789063-87.730469 55.648437zm-8.921875 49.527344c-4.109375-2.964844-6.789062-7.789062-6.789062-13.230468 0-6.109376 3.378906-11.449219 8.367187-14.242188-1.824219 9.019531-2.34375 18.304688-1.578125 27.472656zm191.730469-27.472656c4.988281 2.792969 8.367187 8.128906 8.367187 14.242188 0 5.441406-2.679687 10.269531-6.789062 13.230468.785156-9.160156.246094-18.464844-1.578125-27.472656zm-95.078125-57.703125c33.121094 0 61.421875 21.023437 72.269531 50.425781 4.953125 13.4375 6.007813 28.1875 3.132813 42.207032-7.246094 34.988281-38.296875 61.367187-75.402344 61.367187-37.070312 0-68.101562-26.332031-75.378906-61.277344-2.933594-14.097656-1.710938-28.632812 3.0625-42.175781 10.8125-29.464844 39.148437-50.546875 72.316406-50.546875zm0 0"/><path d="m209.546875 185.050781c2.675781 6.417969 11.382813 8.269531 16.308594 3.238281 2.820312-2.820312 3.691406-7.207031 2.160156-10.890624-2.074219-4.96875-7.84375-7.421876-12.859375-5.476563-5.167969 2.003906-7.707031 8.007813-5.609375 13.128906zm0 0"/></svg>