<svg height="511pt" viewBox="-78 0 511 511.99697" width="511pt" xmlns="http://www.w3.org/2000/svg"><path d="m194.054688 180.972656h16.175781v15.140625h-16.175781zm0 0"/><path d="m317.207031 159.59375-11.886719 9.378906c22.769532 28.855469 34.804688 63.585938 34.804688 100.433594 0 4.96875-.253906 9.914062-.734375 14.785156-10.75 14.75-70.636719 90.855469-161.507813 90.855469-90.871093 0-150.757812-76.105469-161.507812-90.855469-.480469-4.835937-.734375-9.792968-.734375-14.785156 0-36.996094 12.636719-72.777344 35.714844-101.523438 15.261719 10.152344 52.824219 28.230469 126.527343 28.230469v-15.140625c-67.753906 0-102.496093-15.917968-116.386718-24.582031 12.65625-13.0625 27.304687-23.828125 43.675781-32.101563 18.332031 9.5625 41.222656 14.652344 68.15625 15.164063l.003906.054687h11.285157l.003906-.050781c26.375-.503906 48.914062-5.382812 67.105468-14.542969 15.585938 7.96875 29.71875 18.363282 42.046876 30.941407l10.8125-10.601563c-11.332032-11.5625-24.066407-21.429687-37.964844-29.460937 20.433594-15.105469 33.679687-37.316407 38.566406-64.980469 4.265625-24.121094.699219-43.804688.542969-44.628906l-1.148438-6.183594h-6.289062c-22.15625 0-41.847657 3.382812-58.527344 10.054688l5.621094 14.058593c13.226562-5.289062 28.753906-8.261719 46.234375-8.859375 1.59375 17.9375 1.839844 69.578125-43.644532 94.53125-16 8.828125-36.421874 13.6875-60.785156 14.46875-.023437-.964844-.035156-2.019531-.035156-3.152344 0-18.214843 3.996094-63.257812 41.015625-87.992187l-8.410156-12.589844c-22.367188 14.941407-34.363281 35.898438-40.742188 55.496094-2.933593-9.039063-7.054687-18.335937-12.835937-27.191406-21.164063-32.398438-56.972656-48.824219-106.441406-48.824219h-6.289063l-1.152344 6.183594c-.152343.816406-3.679687 20.273437.46875 44.195312 4.75 27.40625 17.695313 49.511719 37.667969 64.644532-17.371094 9.878906-32.8125 22.472656-46.015625 37.5625-28.324219 32.34375-43.921875 73.832031-43.921875 116.820312 0 6.214844.339844 12.402344 1.007812 18.316406 4.175782 40.964844 22.777344 79.460938 52.375 108.394532l10.582032-10.828126c-20.046875-19.597656-34.570313-43.988281-42.3125-70.570312 27.457031 29.546875 81.984375 75.46875 155.730468 75.46875 73.785157 0 128.332032-45.964844 155.773438-75.511719-14.699219 50.683594-53.691406 91.871094-105.089844 108.78125l-1.5625.515625-49.121094 45.375-49.117187-45.375-1.5625-.515625c-18.039063-5.9375-34.78125-14.9375-49.753906-26.757812l-9.382813 11.886719c15.933594 12.574218 33.699219 22.234374 52.828125 28.726562l49.417969 45.652344v29.03125h15.140625v-29.03125l49.421875-45.652344c65.585938-22.261719 112.371094-80.800781 119.375-149.511719.675781-5.996093 1.019531-12.183593 1.019531-18.394531 0-40.289062-13.164062-78.261719-38.0625-109.8125zm-249.4375-111.339844c-2.433593-13.699218-1.996093-25.949218-1.359375-33 94.046875 3.222656 104.386719 74.710938 104.386719 105.847656 0 1.132813-.015625 2.1875-.039063 3.152344-24.871093-.800781-45.585937-5.859375-61.691406-15.082031-22.476562-12.671875-36.367187-33.167969-41.296875-60.917969zm0 0"/><path d="m226.402344 180.972656h16.171875v15.140625h-16.171875zm0 0"/><path d="m242.574219 164.800781h16.171875v15.140625h-16.171875zm0 0"/><path d="m64.675781 278.011719h16.171875v15.140625h-16.171875zm0 0"/><path d="m80.847656 294.183594h16.171875v15.140625h-16.171875zm0 0"/></svg>