<svg height="512pt" viewBox="-31 0 512 512.00103" width="512pt" xmlns="http://www.w3.org/2000/svg"><path d="m439.691406 195.621094c-1.164062-4.410156-4.214844-8.082032-8.339844-10.03125-4.121093-1.953125-8.894531-1.980469-13.042968-.085938-59.332032 27.144532-115.910156 29.175782-152.921875 26.101563-34.535157-2.871094-62.351563-11.199219-79.183594-19.777344 8.460937-12.65625 13.109375-27.652344 13.109375-43.125 0-9.09375-1.585938-17.820313-4.472656-25.933594 10.078125-9.539062 16.386718-23.023437 16.386718-37.960937 0-24.660156-17.15625-45.390625-40.160156-50.878906-7.484375-20-26.757812-33.929688-48.980468-33.929688-22.222657 0-41.496094 13.929688-48.976563 33.929688-23.003906 5.488281-40.160156 26.21875-40.160156 50.878906 0 14.097656 5.617187 26.898437 14.71875 36.316406-13.429688 6-33.226563 19.472656-46.332031 49.113281-2.191407 4.953125-1.667969 10.691407 1.4375 15.125 3.109374 4.4375 8.269531 6.925781 13.671874 6.558594.214844-.007813 18.425782-.914063 32.292969 8.324219-6.105469 17.191406-17.207031 51.042968-17.207031 69.902344 0 102.09375 83.058594 185.15625 185.15625 185.15625 7.519531 0 14.898438-.242188 22.15625-.699219l-9.140625 26.46875h-27.125c-8.539063 0-15.460937 6.925781-15.460937 15.464843 0 8.539063 6.921874 15.460938 15.460937 15.460938h76.285156c8.539063 0 15.464844-6.921875 15.464844-15.460938 0-8.539062-6.925781-15.464843-15.464844-15.464843h-16.445312l10.511719-30.433594c47.425781-8.21875 87.695312-27.230469 118.289062-56.171875 37.859375-35.820312 58.710938-84.875 58.710938-138.128906.003906-21.300782-9.191407-56.75-10.238282-60.71875zm-223.003906 228.753906c-74.5 0-136.832031-53.101562-151.136719-123.441406.953125.640625 1.878907 1.214844 2.757813 1.710937 6.722656 3.824219 14.078125 5.726563 21.460937 5.726563 8.015625 0 16.0625-2.246094 23.378907-6.714844 9.644531-5.898438 16.671874-14.804688 20.390624-25.363281 15.601563 3.441406 37.910157 5.03125 55.117188-7.164063 11.203125-7.941406 18.082031-19.964844 20.609375-35.84375 16.285156 4.390625 34.488281 7.554688 53.558594 9.140625 37.09375 3.082031 92.089843 1.484375 151.074219-21.488281 2.554687 11.941406 5.109374 26.320312 5.109374 35.402344 0 83.640625-62.558593 168.035156-202.320312 168.035156zm-152.8125-339.566406c0-11.730469 9.496094-21.28125 21.199219-21.375.085937.003906.171875.003906.257812.003906 7.898438.0625 14.617188-5.804688 15.535157-13.664062 1.257812-10.746094 10.378906-18.847657 21.21875-18.847657 10.839843 0 19.960937 8.101563 21.21875 18.847657.910156 7.800781 7.519531 13.667968 15.355468 13.667968.144532 0 .289063-.003906.433594-.007812 11.707031.09375 21.203125 9.644531 21.203125 21.375 0 3.707031-.953125 7.195312-2.617187 10.234375-14.128907-14.71875-33.972657-23.910157-55.9375-23.910157-25.378907 0-43.210938 11.105469-54.949219 24.402344-1.84375-3.160156-2.917969-6.816406-2.917969-10.726562zm2.78125 62.300781c6.496094-.765625 11.277344-5.269531 12.722656-11.65625.195313-.734375 2.613282-9.421875 9.105469-17.695313 8.289063-10.5625 19.167969-15.699218 33.257813-15.699218 25.71875 0 46.644531 20.921875 46.644531 46.644531 0 13.269531-5.691407 25.957031-15.613281 34.8125-3.289063 2.933594-5.171876 7.132813-5.167969 11.542969 0 4.40625 1.882812 8.605468 5.175781 11.539062 6.6875 5.957032 15.734375 11.433594 26.535156 16.25-.5 8.402344-2.636718 16.839844-8.511718 21.027344-11.785157 8.402344-36.195313 1.324219-43.777344-1.800781-4.882813-2.046875-10.472656-1.445313-14.816406 1.582031-4.339844 3.027344-6.832032 8.066406-6.601563 13.355469.34375 7.929687-2.867187 14.753906-8.59375 18.253906-2.066406 1.269531-7.519531 3.847656-13.425781.492187-8.6875-4.9375-13.847656-19.746093-13.960938-39.824218 3.722656-12.601563 8.214844-25.597656 11.71875-34.785156 2.066406-5.414063.933594-11.527344-2.9375-15.84375-10.980468-12.234376-25.03125-18.367188-37.167968-21.414063 11.667968-13.699219 23.875-16.476563 25.414062-16.78125zm0 0"/><path d="m121.054688 129.300781c-8.085938 0-15.835938 7.109375-15.460938 15.460938.375 8.378906 6.792969 15.464843 15.460938 15.464843 8.089843 0 15.835937-7.113281 15.464843-15.464843-.375-8.378907-6.792969-15.460938-15.464843-15.460938zm0 0"/></svg>