<svg id="Capa_1" enable-background="new 0 0 512 512" height="512" viewBox="0 0 512 512" width="512" xmlns="http://www.w3.org/2000/svg"><g><g><g><g><g><g><g><path d="m384.999 188.895h-161.565c-4.142 0-7.5-3.358-7.5-7.5s3.358-7.5 7.5-7.5h161.565c4.142 0 7.5 3.358 7.5 7.5s-3.358 7.5-7.5 7.5z"/></g><g><path d="m384.999 230.263h-161.565c-4.142 0-7.5-3.358-7.5-7.5s3.358-7.5 7.5-7.5h161.565c4.142 0 7.5 3.358 7.5 7.5s-3.358 7.5-7.5 7.5z"/></g></g></g></g></g><g><g><g><g><g><path d="m384.999 294.725h-161.565c-4.142 0-7.5-3.358-7.5-7.5s3.358-7.5 7.5-7.5h161.565c4.142 0 7.5 3.358 7.5 7.5s-3.358 7.5-7.5 7.5z"/></g><g><path d="m384.999 336.094h-161.565c-4.142 0-7.5-3.358-7.5-7.5s3.358-7.5 7.5-7.5h161.565c4.142 0 7.5 3.358 7.5 7.5s-3.358 7.5-7.5 7.5z"/></g></g></g></g></g><g><g><g><g><g><path d="m384.999 400.556h-161.565c-4.142 0-7.5-3.358-7.5-7.5s3.358-7.5 7.5-7.5h161.565c4.142 0 7.5 3.358 7.5 7.5s-3.358 7.5-7.5 7.5z"/></g><g><path d="m384.999 441.924h-161.565c-4.142 0-7.5-3.358-7.5-7.5s3.358-7.5 7.5-7.5h161.565c4.142 0 7.5 3.358 7.5 7.5s-3.358 7.5-7.5 7.5z"/></g></g></g></g></g><g><path d="m337.125 107.283h-162.251c-10.15 0-18.408-8.258-18.408-18.408v-19.152c0-10.15 8.258-18.408 18.408-18.408h40.696c1.879 0 3.408-1.529 3.408-3.408v-10.886c.001-20.414 16.608-37.021 37.022-37.021s37.021 16.607 37.021 37.021v10.887c0 1.879 1.529 3.408 3.408 3.408h40.696c10.15 0 18.408 8.258 18.408 18.408v19.152c0 10.149-8.257 18.407-18.408 18.407zm-162.251-40.968c-1.879 0-3.408 1.529-3.408 3.408v19.152c0 1.879 1.529 3.408 3.408 3.408h162.251c1.879 0 3.408-1.529 3.408-3.408v-19.152c0-1.879-1.529-3.408-3.408-3.408h-40.696c-10.15 0-18.408-8.258-18.408-18.408v-10.886c0-12.143-9.879-22.021-22.021-22.021s-22.021 9.878-22.021 22.021v10.887c0 10.15-8.258 18.408-18.408 18.408h-40.697z"/></g><g><path d="m411.987 512h-311.975c-15.676 0-28.43-12.754-28.43-28.43v-384.135c0-15.676 12.754-28.43 28.43-28.43h28.846c4.142 0 7.5 3.358 7.5 7.5s-3.358 7.5-7.5 7.5h-28.846c-7.405 0-13.43 6.025-13.43 13.43v384.134c0 7.405 6.025 13.43 13.43 13.43h311.975c7.405 0 13.43-6.025 13.43-13.43v-384.134c0-7.405-6.025-13.43-13.43-13.43h-28.878c-4.142 0-7.5-3.358-7.5-7.5s3.358-7.5 7.5-7.5h28.878c15.676 0 28.43 12.754 28.43 28.43v384.134c0 15.677-12.754 28.431-28.43 28.431z"/></g><g><path d="m155.599 232.958c-1.937 0-3.872-.423-5.674-1.269-9.067-4.256-30.182-16.346-30.423-36.645-.155-12.99 10.308-23.813 23.443-23.839 5.59.015 9.77 1.758 12.727 3.873 3.602-2.56 7.977-3.888 12.718-3.872 13.49.098 23.814 11.503 23.295 24.628-.785 19.841-21.509 31.679-30.383 35.847-1.813.85-3.759 1.277-5.703 1.277zm-12.623-46.753c-4.697.009-8.531 3.92-8.475 8.661.14 11.795 16.32 20.574 21.104 22.913 10.083-4.881 20.724-13.255 21.091-22.538.19-4.811-3.549-9.001-8.417-9.035-2.321-.041-4.047.795-5.314 2.483-3.612 4.815-11.062 4.948-14.743-.14-1.143-1.583-2.82-2.321-5.246-2.344z"/></g><g><path d="m149.925 337.52c-9.067-4.257-30.182-16.348-30.423-36.645-.156-13.019 10.333-23.813 23.444-23.839 5.625-.042 9.769 1.758 12.726 3.873 3.601-2.56 7.954-3.887 12.718-3.873 13.437.099 23.817 11.446 23.296 24.628-.785 19.842-21.51 31.679-30.384 35.847-3.621 1.699-7.766 1.702-11.377.009zm-6.95-45.485c-4.696.009-8.53 3.919-8.474 8.661.112 9.435 10.844 17.949 21.103 22.914 10.083-4.88 20.726-13.254 21.093-22.539.194-4.896-3.625-9.001-8.417-9.036-2.349-.049-4.048.795-5.314 2.483-3.712 4.946-11.141 4.838-14.743-.14-1.144-1.581-2.821-2.374-5.248-2.343.001 0 .001 0 0 0z"/></g><g><path d="m149.925 443.35c-9.067-4.256-30.182-16.346-30.423-36.645-.155-12.99 10.308-23.813 23.443-23.839 5.59-.021 9.77 1.758 12.727 3.873 3.602-2.56 7.987-3.868 12.717-3.872 13.438.098 23.817 11.448 23.296 24.628-.785 19.841-21.509 31.679-30.383 35.847-3.623 1.699-7.767 1.702-11.377.008zm-6.949-45.485c-4.697.009-8.531 3.921-8.475 8.661.14 11.795 16.32 20.574 21.104 22.913 10.083-4.881 20.724-13.255 21.091-22.538.19-4.811-3.549-9.001-8.417-9.035-.023 0-.046 0-.07 0-2.275 0-3.991.813-5.245 2.483-3.703 4.937-11.136 4.848-14.744-.141-1.14-1.576-2.849-2.342-5.224-2.342-.005-.001-.012-.001-.02-.001z"/></g></g></g></svg>