<svg viewBox="0 -20 512.0007 512" xmlns="http://www.w3.org/2000/svg"><path d="m142.972656 144.632812c2.273438 0 4.558594-.769531 6.433594-2.339843l.257812-.21875c4.179688-3.597657 4.648438-9.890625 1.058594-14.074219-3.589844-4.1875-9.902344-4.667969-14.101562-1.085938l-.082032.070313c-4.234374 3.546875-4.777343 9.847656-1.230468 14.082031 1.976562 2.351563 4.8125 3.566406 7.664062 3.566406zm0 0"/><path d="m483.226562 75.636719c2.269532 0 4.554688-.769531 6.429688-2.339844l.261719-.21875c4.179687-3.597656 4.644531-9.890625 1.054687-14.074219-3.589844-4.1875-9.902344-4.667968-14.097656-1.085937l-.085938.070312c-4.230468 3.546875-4.777343 9.847657-1.226562 14.082031 1.976562 2.351563 4.808594 3.566407 7.664062 3.566407zm0 0"/><path d="m508.386719 26.960938c-26.621094-22.09375-62.441407-29.941407-95.816407-21-20.203124 5.414062-38.097656 16.613281-51.746093 31.800781-.132813-5.5-.433594-10.203125-.851563-13.738281-1.714844-14.515626-14.675781-25.246094-28.882812-23.910157-11.726563 1.097657-24.816406 11.09375-23.105469 35.644531.644531 9.261719-2.199219 38.523438-7.707031 61.410157-9.996094-3.59375-20.433594-6.203125-31.234375-7.769531-36.648438-5.320313-74.894531 1.953124-107.691407 20.480468-4.808593 2.714844-6.503906 8.816406-3.789062 13.625 2.71875 4.808594 8.816406 6.503906 13.625 3.789063 35.957031-20.3125 85.476562-27.589844 129.917969-8.492188.839843.601563 1.78125 1.089844 2.820312 1.414063.285157.09375.570313.160156.855469.226562 8.5625 3.988282 16.910156 8.992188 24.914062 15.089844.578126.570312 1.226563 1.082031 1.945313 1.507812 7.945313 6.277344 15.535156 13.652344 22.628906 22.246094 33.039063 40.023438 39.941407 92.453125 18.941407 143.835938-25.71875 62.929687-99.851563 135.074218-230.792969 148.839844-31.355469 3.296874-61.554688-2.113282-85.035157-15.234376-19.882812-11.109374-33.710937-27.253906-36.996093-43.183593-2.613281-12.695313 9.878906-26.785157 25.691406-44.625 22.097656-24.921875 49.597656-55.9375 52.105469-102.851563 1.585937-29.628906 11.386718-57.21875 28.347656-79.789062 3.316406-4.414063 2.429688-10.683594-1.984375-14-4.417969-3.320313-10.6875-2.429688-14.003906 1.984375-19.351563 25.753906-30.53125 57.128906-32.328125 90.734375-2.136719 39.941406-26.023438 66.882812-47.101563 90.65625-18.753906 21.152344-34.949219 39.417968-30.3125 61.925781 4.503907 21.863281 21.570313 42.496094 46.828125 56.605469 21.957032 12.269531 48.761719 18.714844 77.019532 18.714844 6.554687 0 13.191406-.347657 19.863281-1.046876 59.804687-6.289062 114.777343-25.632812 158.96875-55.9375 41.117187-28.195312 71.628906-64.582031 88.242187-105.226562 23.875-58.421875 15.84375-118.246094-22.03125-164.132812-6.46875-7.835938-13.46875-14.941407-20.949218-21.289063.347656-.90625.585937-1.53125.59375-1.550781 3.433593-9.113282 5.949218-19.738282 7.742187-30.6875 16.496094 9.714844 35.273437 14.816406 54.292969 14.816406 9.199218 0 18.453125-1.1875 27.527344-3.621094 9.617187-2.574218 18.789062-6.457031 27.265624-11.53125.28125-.167968.5625-.339844.839844-.507812 4.707032-2.890625 6.175782-9.046875 3.289063-13.753906-2.890625-4.707032-9.050781-6.179688-13.753907-3.289063l-.65625.398437c-6.875 4.117188-14.332031 7.269532-22.160156 9.367188-24.757812 6.632812-51.175781 1.894531-72.054687-12.648438 10.8125-23.03125 31.316406-40.34375 56.078125-46.980468 27.117187-7.265625 56.226562-.882813 77.867187 17.074218 4.25 3.527344 10.554688 2.941407 14.082031-1.308593 3.527344-4.25 2.941407-10.554688-1.308593-14.082031zm-189.519531 78.289062c6.429687-24.949219 9.929687-58.492188 9.066406-70.882812-.582032-8.375 1.390625-14.003907 5.023437-14.34375 2.582031-.242188 6.628907 1.875 7.152344 6.34375 2.003906 16.984374.839844 59.089843-8.144531 86.453124-4.25-2.738281-8.617188-5.265624-13.097656-7.570312zm0 0"/><path d="m189.511719 415.570312c.753906 0 1.523437-.085937 2.289062-.265624 23.679688-5.546876 46.105469-15.257813 64.847657-28.078126 4.558593-3.117187 5.722656-9.339843 2.605468-13.898437-3.117187-4.558594-9.339844-5.726563-13.898437-2.609375-16.722657 11.441406-36.816407 20.125-58.117188 25.117188-5.375 1.257812-8.714843 6.636718-7.453125 12.015624 1.078125 4.609376 5.1875 7.71875 9.726563 7.71875zm0 0"/><path d="m151.433594 410.90625c.4375 5.222656 4.808594 9.171875 9.953125 9.171875.277343 0 .558593-.011719.84375-.035156l.140625-.015625c5.503906-.457032 9.59375-5.289063 9.136718-10.792969-.460937-5.503906-5.28125-9.601563-10.796874-9.136719-.023438.003906-.128907.011719-.167969.015625-5.492188.472657-9.566407 5.300781-9.109375 10.792969zm0 0"/></svg>