<svg id="Layer_5" enable-background="new 0 0 64 64" height="512" viewBox="0 0 64 64" width="512" xmlns="http://www.w3.org/2000/svg"><g><path d="m48 49c-2.757 0-5 2.243-5 5s2.243 5 5 5 5-2.243 5-5-2.243-5-5-5zm0 8c-1.654 0-3-1.346-3-3s1.346-3 3-3 3 1.346 3 3-1.346 3-3 3z"/><path d="m32 45c-3.309 0-6 2.691-6 6s2.691 6 6 6 6-2.691 6-6-2.691-6-6-6zm0 10c-2.206 0-4-1.794-4-4s1.794-4 4-4 4 1.794 4 4-1.794 4-4 4z"/><path d="m18 37c-3.309 0-6 2.691-6 6s2.691 6 6 6 6-2.691 6-6-2.691-6-6-6zm0 10c-2.206 0-4-1.794-4-4s1.794-4 4-4 4 1.794 4 4-1.794 4-4 4z"/><path d="m15 31c0-2.757-2.243-5-5-5s-5 2.243-5 5 2.243 5 5 5 5-2.243 5-5zm-5 3c-1.654 0-3-1.346-3-3s1.346-3 3-3 3 1.346 3 3-1.346 3-3 3z"/><path d="m61.967 47c-.18.004-17.989.519-30.511-5.891-.804-.411-1.544-.837-2.257-1.268 3.321.832 6.357 1.162 9.076 1.162 7.53 0 12.641-2.483 14.742-3.504 8.388-4.076 11.898-10.937 8.941-17.478l-.438-.97-.94.498c-.119.063-12.035 6.278-22.512 5.903-7.911-.286-11.693-3.631-14.732-6.319-2.379-2.105-4.455-3.936-7.485-2.783-.737-.578-2.295-1.959-3.384-4 .701-4.608 1.945-6.566 1.944-6.566.979-1.321.705-3.198-.608-4.183-1.274-.958-3.242-.679-4.202.599-.594.792-3.518 5.276-3.594 16.372-4.989 2.072-5.007 9.39-5.007 12.428 0 2.977 1.857 12.33 10.342 19.752 13.997 12.248 27.29 12.248 31.658 12.248 12.149 0 20-5.888 20-15v-1.034zm-39.955-26.368c3.104 2.747 7.357 6.508 15.984 6.82 9.324.323 19.362-4.103 22.522-5.634 1.754 5.233-1.371 10.479-8.376 13.883-2.823 1.372-11.413 5.547-24.206 1.726-1.429-.427-2.837-1.023-4.19-1.765-3.666-3.595-5.385-7.35-6.759-10.375-.842-1.852-1.633-3.58-2.725-4.89.314-.864.924-1.53 1.893-2.001 2.062-1 3.284-.038 5.857 2.236zm-8.013-3.219c-.549.448-.985.973-1.308 1.573-.218-.139-.444-.268-.685-.379.008-1.136.05-2.189.12-3.158.663.83 1.331 1.488 1.873 1.964zm-2.8-14.012c.322-.427.97-.524 1.402-.199.438.328.528.953.172 1.437-.275.414-2.606 4.226-2.759 13.426-.322-.039-.656-.065-1.014-.065-.349 0-.665.04-.984.075.166-10.495 3.058-14.507 3.183-14.674zm31.801 57.599c-4.183 0-16.909 0-30.342-11.752-7.884-6.899-9.658-15.706-9.658-18.248 0-7.71 1.794-11 6-11 3.246 0 4.292 1.984 6.167 6.113 2.224 4.897 5.27 11.604 15.377 16.777 11.333 5.802 26.275 6.158 30.418 6.127-.563 7.421-7.336 11.983-17.962 11.983z"/><path d="m22 30c1.654 0 3-1.346 3-3s-1.346-3-3-3-3 1.346-3 3 1.346 3 3 3zm0-4c.552 0 1 .449 1 1s-.448 1-1 1-1-.449-1-1 .448-1 1-1z"/><path d="m31 36c2.206 0 4-1.794 4-4s-1.794-4-4-4-4 1.794-4 4 1.794 4 4 4zm0-6c1.103 0 2 .897 2 2s-.897 2-2 2-2-.897-2-2 .897-2 2-2z"/><path d="m43 37c2.206 0 4-1.794 4-4s-1.794-4-4-4-4 1.794-4 4 1.794 4 4 4zm0-6c1.103 0 2 .897 2 2s-.897 2-2 2-2-.897-2-2 .897-2 2-2z"/><path d="m54 32c1.654 0 3-1.346 3-3s-1.346-3-3-3-3 1.346-3 3 1.346 3 3 3zm0-4c.552 0 1 .449 1 1s-.448 1-1 1-1-.449-1-1 .448-1 1-1z"/></g></svg>