<svg height="512pt" viewBox="-10 0 512 512.00013" width="512pt" xmlns="http://www.w3.org/2000/svg"><path d="m177.726562 512c5.941407 0 11.964844-.351562 17.929688-1.015625 11.890625 1.628906 23.582031 1.289063 35.328125-.972656 10.414063 2.648437 20.976563 2.652343 31.40625 0 11.738281 2.261719 23.421875 2.601562 35.324219.972656 5.96875.664063 11.992187 1.015625 17.933594 1.015625 92.285156 0 168.714843-78.347656 176.976562-179.390625.335938-4.125-2.734375-7.746094-6.863281-8.085937-4.128907-.351563-7.75 2.738281-8.085938 6.863281-6.878906 84.085937-62.886719 149.757812-134.851562 163.121093 57.511719-35.5 84.996093-111.351562 84.996093-179.996093 0-69.386719-28-144.722657-84.859374-179.898438 72.929687 13.894531 128.058593 81.390625 134.714843 162.992188.335938 4.128906 3.976563 7.191406 8.082031 6.867187 4.132813-.335937 7.203126-3.957031 6.867188-8.085937-8.472656-103.925781-89.5-184.332031-185.71875-179.109375-9.132812-7.492188-16.363281-15.914063-21.554688-25.164063 13.511719 2.925781 26.609376 2.675781 36.117188 1.75 10.277344-1 11.664062-15.457031 1.761719-18.414062-14.222657-4.246094-23.042969-13.535157-27.035157-18.691407-2.535156-3.273437-7.246093-3.875-10.519531-1.339843-3.277343 2.539062-3.875 7.246093-1.339843 10.523437 2.65625 3.4375 7 8.308594 13.140624 12.957032-6.210937-.679688-12.703124-2.019532-18.984374-4.367188-7.558594-2.832031-14.976563 4.546875-12.167969 12.09375 4.109375 11.03125 10.320312 21.191406 18.550781 30.355469-7.683594-.101563-15.335938.640625-22.503906 2.027343-10.347656-2.628906-20.796875-2.6875-31.363282 0-7.824218-1.515624-16.082031-2.234374-24.226562-1.996093 17.03125-20.273438 25.519531-45.476563 25.519531-70.367188v-29.644531c0-1.101562.898438-2 2-2h32.261719c.457031 5.089844 1.382812 10.449219 2.757812 15.945312 1.007813 4.019532 5.078126 6.460938 9.097657 5.457032 4.019531-1.007813 6.460937-5.078125 5.457031-9.097656-1.261719-5.027344-2.078125-9.875-2.4375-14.410157-.570312-7.230469-6.675781-12.894531-13.902344-12.894531h-33.234375c-9.375 0-17 7.625-17 17v29.644531c0 4.113281-.273437 8.183594-.785156 12.199219-6.386719 7.722656-22.523437 23.75-37.632813 25.175781-6.113281.574219-11.519531-1.300781-16.515624-5.734375-4.847657-4.304687-6.476563-9.003906-4.839844-13.96875 2.96875-9.011718 17.859375-18.039062 25.511718-3.9375 1.972657 3.640625 6.523438 4.992188 10.167969 3.015625 3.644531-1.972656 4.992188-6.527343 3.019531-10.167969-13.921874-25.664062-45.714843-15.539062-52.945312 6.394532-3.527344 10.707031-.203125 21.597656 9.125 29.878906 17.054688 15.144531 37.417969 11.003906 55.910156-2.5-5.359375 11.398438-13.007812 21.695312-22.632812 30.234375-100.113282-5.03125-185.683594 83.519531-185.683594 197.277344 0 108.894531 79.726562 197.488281 177.726562 197.488281zm-97.167968-197.488281c0-84.464844 46.332031-176.960938 123.699218-182.261719-48.054687 36.386719-66.335937 119.4375-66.335937 182.261719 0 76.445312 24.191406 150.371093 66.355469 182.28125-75.148438-5.011719-123.71875-94.285157-123.71875-182.28125zm72.367187 0c0-99.632813 42.441407-182.484375 93.761719-182.484375 52.34375 0 93.761719 85.277344 93.761719 182.484375 0 76.070312-28.222657 165.628906-80.410157 180.589843-.027343.007813-.050781.019532-.078124.027344-56.265626 15.921875-107.035157-71.222656-107.035157-180.617187zm202.523438 0c0-93.578125-33.785157-157.613281-66.332031-182.257813 78.308593 5.363282 123.699218 98.882813 123.699218 182.257813 0 97.6875-55.0625 177.703125-123.71875 182.277343 46.019532-34.824218 66.351563-114.257812 66.351563-182.277343zm-204.933594-179.96875c-57.589844 35.851562-84.960937 111.136719-84.960937 179.96875 0 71.421875 29.125 145.421875 84.875 179.917969-76.777344-14.601563-135.429688-89.722657-135.429688-179.917969 0-93.644531 61.488281-166.003907 135.515625-179.96875zm0 0"/></svg>