<svg height="512pt" viewBox="0 -26 512 512" width="512pt" xmlns="http://www.w3.org/2000/svg"><path d="m419 260.019531c-5.519531 0-10 4.480469-10 10s4.480469 10 10 10 10-4.480469 10-10-4.480469-10-10-10zm0 0"/><path d="m382 100.019531c-11.476562 0-24.324219 2.792969-34.277344 7.296875-10.328125-4.839844-20.976562-7.296875-31.722656-7.296875-10.128906 0-20.039062 2.175781-29.601562 6.464844 2.585937-22.042969 17.640624-40.855469 39.089843-48.003906 15.726563-5.238281 24.222657-22.21875 18.96875-37.953125-5.210937-15.632813-22.082031-24.261719-37.949219-18.964844-46.160156 15.382812-77.785156 57.273438-80.324218 105.433594-10.304688-4.398438-22.21875-6.976563-33.183594-6.976563-10.25 0-20.347656 2.25-30.085938 6.679688-9.761718-4.171875-21.898437-6.679688-32.914062-6.679688-30.261719 0-63.421875 20.109375-88.707031 53.789063-26.628907 35.46875-41.292969 80.289062-41.292969 126.210937s14.664062 90.746094 41.292969 126.214844c25.285156 33.679687 58.445312 53.785156 88.707031 53.785156 11.015625 0 23.148438-2.507812 32.914062-6.679687 9.734376 4.433594 19.832032 6.679687 30.085938 6.679687 12.441406 0 26.101562-3.3125 37.25-8.851562 8.148438 5.878906 16.78125 8.851562 25.75 8.851562 8.929688 0 17.53125-2.949219 25.648438-8.777343 11.011718 5.820312 22.535156 8.777343 34.351562 8.777343 10.746094 0 21.390625-2.457031 31.707031-7.304687 9.957031 4.507812 22.808594 7.304687 34.292969 7.304687 30.261719 0 63.421875-20.105469 88.707031-53.785156 26.628907-35.46875 41.292969-80.289063 41.292969-126.214844 0-45.921875-14.664062-90.746093-41.292969-126.210937-25.285156-33.679688-58.445312-53.789063-88.707031-53.789063zm-69.160156-79.484375c5.273437-1.761718 10.890625 1.058594 12.644531 6.324219 1.746094 5.226563-1.058594 10.894531-6.316406 12.644531-28.035157 9.347656-47.953125 33.492188-52.277344 62.042969-3.578125-1.011719-7.210937-1.527344-10.890625-1.527344-3.113281 0-6.199219.375-9.242188 1.097657 4.601563-37.019532 29.988282-68.554688 66.082032-80.582032zm-255.554688 373.691406c-24.042968-32.027343-37.285156-72.585937-37.285156-114.207031 0-41.617187 13.242188-82.179687 37.285156-114.203125 21.527344-28.675781 48.710938-45.796875 72.714844-45.796875 3.496094 0 7.246094.363281 10.957031 1.011719-35.292969 30.667969-57.957031 91.257812-57.957031 158.988281 0 67.734375 22.664062 128.320313 57.957031 158.988281-3.710937.652344-7.457031 1.011719-10.957031 1.011719-24.003906 0-51.1875-17.117187-72.714844-45.792969zm110.429688 39.195313c-.015625-.007813-.027344-.015625-.042969-.023437-38.078125-20.363282-64.671875-83.425782-64.671875-153.378907 0-69.960937 26.597656-133.03125 64.683594-153.382812.003906-.003907.007812-.003907.011718-.007813.003907 0 .007813-.003906.011719-.003906 8.21875-4.382812 16.726563-6.605469 25.292969-6.605469 7.140625 0 14.984375 1.5 22.019531 4.050781-24 31.296876-39.019531 90.15625-39.019531 155.949219s15.023438 124.65625 39.019531 155.953125c-7.035156 2.550782-14.878906 4.046875-22.019531 4.046875-8.566406 0-17.074219-2.21875-25.285156-6.597656zm70.332031-1.664063c-25.148437-23.046874-42.046875-84.027343-42.046875-151.738281 0-67.707031 16.898438-128.6875 42.042969-151.734375 5.042969-4.613281 11.175781-8.265625 17.957031-8.265625 6.792969 0 12.941406 3.671875 17.953125 8.261719 25.148437 23.050781 42.046875 84.03125 42.046875 151.738281 0 67.710938-16.898438 128.6875-42.046875 151.738281-5.980469 5.484376-12.019531 8.261719-17.953125 8.261719s-11.972656-2.777343-17.953125-8.261719zm216.667969-37.53125c-21.527344 28.675782-48.710938 45.792969-72.714844 45.792969-4.128906 0-8.53125-.484375-12.808594-1.347656 34.84375-29.683594 53.332032-81.121094 58.203125-127.640625.574219-5.492188-3.410156-10.410156-8.902343-10.988281-5.496094-.570313-10.414063 3.414062-10.988282 8.90625-5.964844 56.984375-31.324218 105.574219-64.605468 123.789062-8.824219 4.832031-17.875 7.28125-26.898438 7.28125-6.492188 0-12.925781-1.269531-19.222656-3.78125 24.113281-31.230469 39.222656-90.238281 39.222656-156.21875s-15.109375-124.988281-39.226562-156.214843c6.300781-2.511719 12.730468-3.785157 19.226562-3.785157 9.03125 0 18.09375 2.449219 26.949219 7.285157 29.417969 16.019531 53.121093 56.148437 61.859375 104.726562.867187 4.835938 5.082031 8.230469 9.828125 8.230469.589843 0 1.183593-.050781 1.78125-.160157 5.4375-.976562 9.050781-6.175781 8.074219-11.609374-8.277344-46.035157-28.359376-84.53125-55.164063-107.152344 4.234375-.84375 8.585937-1.320313 12.671875-1.320313 24.003906 0 51.183594 17.121094 72.714844 45.796875 24.042968 32.023438 37.285156 72.585938 37.285156 114.203125 0 41.621094-13.242188 82.179688-37.285156 114.207031zm0 0"/></svg>