<svg height="511pt" viewBox="-6 0 511 511.99903" width="511pt" xmlns="http://www.w3.org/2000/svg"><path d="m499.601562 312.625c0-28.601562-23.269531-51.867188-51.867187-51.867188-13.191406 0-25.242187 4.957032-34.40625 13.097657-24.746094-23.457031-58.152344-37.867188-94.863281-37.867188-25.023438 0-50.058594 2.433594-74.410156 7.234375-15.847657 2.582032-27.46875.855469-34.53125-5.132812-8.644532-7.335938-10.832032-21.496094-11.046876-32.789063 1.796876-6.867187 2.761719-14.074219 2.761719-21.5 0-2.074219-.074219-4.148437-.226562-6.214843 13.992187-2.6875 29.125-7.242188 43.980469-13.296876 23.125-9.425781 43.734374-21.636718 58.035156-34.382812 23.363281-20.824219 23.425781-37.078125 19.363281-47.042969-4.0625-9.96875-15.46875-21.535156-46.730469-20.105469-6.625.304688-13.75 1.195313-21.1875 2.605469.988282-1.589843 1.941406-3.175781 2.824219-4.742187 15.355469-27.273438 10.148437-42.667969 3.074219-50.78125-7.074219-8.113282-21.617188-15.371094-50.722656-3.875-17.820313 7.035156-38 19.945312-56.820313 36.351562-18.820313 16.410156-34.363281 34.640625-43.761719 51.335938-1.210937 2.148437-2.277344 4.214844-3.242187 6.21875-20.0625 3.5625-43.46875 16.738281-64.675781 36.746094-25.453126 24.015624-40.648438 51.5-40.648438 73.515624 0 15.445313 6.867188 35.640626 37.953125 47.699219-.300781 1.199219-.476563 2.441407-.476563 3.734375 0 48.960938 17.609376 95.765625 49.714844 132.472656v38.324219c-21.742187.25-39.351562 18.015625-39.351562 39.816407v24.546874c0 8.433594 6.839844 15.273438 15.273437 15.273438h37.210938c34.949219 0 63.558593-27.648438 65.121093-62.21875 11.210938 4.867188 22.339844 8.484375 34.621094 10.675781-1.144531 3.707031-1.765625 7.644531-1.765625 11.722657v24.546874c0 8.433594 6.839844 15.273438 15.273438 15.273438h142.960937c54.832032 0 99.4375-44.609375 99.4375-99.4375v-38.570312c0-3.425782-.128906-6.816407-.375-10.179688 24.636719-4.011719 43.503906-25.433594 43.503906-51.1875zm-49.121093 21.128906c-4.007813-13.121094-9.917969-25.417968-17.414063-36.570312 3.828125-3.632813 8.984375-5.882813 14.664063-5.882813 11.761719 0 21.324219 9.566407 21.324219 21.324219 0 10.824219-8.113282 19.773438-18.574219 21.128906zm-388.367188-174.917968c18.632813-17.582032 40.421875-29.394532 54.21875-29.394532 11.933594 0 23.261719 3.796875 32.757813 10.984375 6.082031 4.601563 14.625 4.011719 20.019531-1.382812 11.355469-11.363281 30.507813-23.035157 52.542969-32.015625 37.957031-15.472656 64.101562-15.226563 71.636718-12.300782-3.34375 7.355469-21.871093 25.804688-59.824218 41.277344-18.128906 7.386719-36.417969 12.175782-51.492188 13.480469-4.542968.394531-8.671875 2.792969-11.257812 6.546875-2.589844 3.757812-3.363282 8.46875-2.113282 12.855469 1.386719 4.867187 2.089844 9.890625 2.089844 14.917969 0 29.972656-24.386718 54.359374-54.359375 54.359374-25.644531 0-85.289062-2.730468-85.289062-28.03125 0-13.355468 12.195312-33.492187 31.070312-51.296874zm110.785157-93.492188c30.898437-26.933594 55.6875-35.164062 63.78125-34.851562-.71875 7.472656-10.75 28.246093-36.929688 52.75-16.511719 7.59375-31.40625 16.578124-42.945312 25.898437-5.457032-2.976563-11.191407-5.316406-17.128907-7.007813 6.835938-10.324218 17.527344-23.105468 33.222657-36.789062zm-37.425782 313.332031v68.128907c0 19.105468-15.546875 34.648437-34.648437 34.648437h-21.9375v-9.273437c0-5.113282 4.160156-9.273438 9.273437-9.273438l14.804688-.003906c8.433594 0 15.269531-6.835938 15.269531-15.273438v-59.457031c0-4.082031-1.601563-7.785156-4.207031-10.527344-28.449219-30.691406-44.507813-70.367187-45.460938-112.125 13.695313 2.136719 29.496094 3.191407 47.765625 3.191407 23.335938 0 44.503907-9.46875 59.867188-24.761719 3.453125 6.859375 7.972656 12.691406 13.5625 17.433593 10.621093 9.007813 24.433593 13.535157 41.222656 13.53125 5.746094 0 11.84375-.527343 18.273437-1.589843.160157-.027344.320313-.058594.476563-.085938 22.480469-4.449219 45.605469-6.707031 68.730469-6.707031 1.355468 0 2.703125.035156 4.046875.085938 57.382812 2.136718 103.414062 49.476562 103.414062 107.375v38.574218c0 37.984375-30.90625 68.886719-68.890625 68.886719h-127.691406v-9.269531c0-5.113282 4.160156-9.273438 9.273438-9.273438h38.664062c8.4375 0 15.273438-6.839844 15.273438-15.273437v-47.832031c0-14.285157 11.625-25.910157 25.910156-25.910157h28.285156c8.4375 0 15.273438-6.835937 15.273438-15.273437 0-8.433594-6.835938-15.269532-15.273438-15.269532h-28.285156c-31.128906 0-56.457032 25.324219-56.457032 56.453126v32.558593h-32.058593c-25.632813 0-42.738281-5.496093-63.929688-16.328125v-37.355468c0-8.4375-6.839843-15.273438-15.273437-15.273438s-15.273438 6.835938-15.273438 15.269531zm0 0"/><path d="m113.246094 188.839844c7.988281 0 15.644531-7.023438 15.273437-15.273438-.371093-8.273437-6.710937-15.273437-15.273437-15.273437-7.988282 0-15.644532 7.023437-15.273438 15.273437.371094 8.277344 6.710938 15.273438 15.273438 15.273438zm0 0"/></svg>