<svg height="512pt" viewBox="-35 0 512 512.00202" width="512pt" xmlns="http://www.w3.org/2000/svg"><path d="m117.25 56.265625c-7.910156 0-15.488281 6.957031-15.125 15.125.367188 8.195313 6.648438 15.125 15.125 15.125 7.914062 0 15.492188-6.957031 15.125-15.125-.367188-8.195313-6.644531-15.125-15.125-15.125zm0 0"/><path d="m390.101562 111.480469c-4.960937-4.964844-12.6875-5.859375-18.652343-2.167969l-96.480469 59.714844c-19.128906-12.25-41.09375-18.675782-64.125-18.675782-3.125 0-6.257812.121094-9.378906.367188l-23.722656-29.972656c9.886718-12.996094 15.375-28.988282 15.375-45.542969 0-41.46875-33.734376-75.203125-75.199219-75.203125-39.390625 0-60.046875 27.578125-67.699219 47.328125-12.199219 5.496094-34.652344 19.492187-48.925781 51.769531-2.070313 4.683594-1.632813 10.09375 1.164062 14.382813 2.792969 4.277343 7.558594 6.859375 12.667969 6.859375h.027344l13.808594-.023438c-9.125 18.597656-18.851563 41.230469-18.851563 53.210938 0 13.972656 6.605469 26.429687 16.847656 34.433594-2.277343 23.878906-3.96875 46.230468-3.96875 59.949218 0 98.851563 80.421875 179.273438 179.273438 179.273438 4.109375 0 8.171875-.074219 12.203125-.199219l-10.242188 34.769531h-25.582031c-8.351563 0-15.125 6.769532-15.125 15.125 0 8.351563 6.773437 15.125 15.125 15.125h73.792969c8.351562 0 15.125-6.773437 15.125-15.125 0-8.355468-6.773438-15.125-15.125-15.125h-16.675782l10.96875-37.242187c52.984376-6.582031 97.707032-25.242188 130.949219-54.953125 41.835938-37.386719 63.949219-90.425782 63.949219-153.371094 0-43.09375-21.1875-94.375-51.523438-124.707031zm-39.890624 159.78125 55.191406 15.890625c-4.003906 16.019531-9.988282 30.726562-17.847656 44.019531l-49.175782-36.714844c4.726563-7.238281 8.707032-15.007812 11.832032-23.195312zm7.183593-29.410157c.53125-4.628906.816407-9.328124.816407-14.097656 0-2.699218-.09375-5.390625-.269532-8.070312l49.878906-12.574219c2.296876 9.9375 3.554688 19.796875 3.554688 29.074219 0 7.164062-.316406 14.144531-.9375 20.9375zm19.226563-100.167968c8.515625 10.515625 15.933594 23.179687 21.710937 36.621094l-46.132812 11.632812c-2.929688-9.015625-6.902344-17.683594-11.839844-25.808594zm-322.816406-3.101563c7.496093 15.777344 13.277343 30.046875 13.445312 34.964844-.011719 7.402344-6.039062 13.421875-13.445312 13.421875-7.414063 0-13.445313-6.03125-13.445313-13.410156.15625-4.898438 5.945313-19.179688 13.445313-34.976563zm148.457031 278.351563c-82.171875 0-149.023438-66.851563-149.023438-149.023438 0-11.566406 1.34375-30.210937 3.238281-50.78125 22.855469-1.382812 41.023438-20.410156 41.023438-43.605468 0-17.546876-20.867188-57.953126-30.144531-75.046876-.582031-1.191406-1.308594-2.316406-2.203125-3.332031-2.871094-3.257812-7.003906-5.121093-11.347656-5.121093-.007813 0-.015626 0-.027344 0l-11.355469.019531c11.167969-12.5625 22.347656-16.117188 23.699219-16.511719 5.679687-1.28125 9.695312-5.421875 10.976562-11.105469.195313-.730469 2.535156-9.097656 8.785156-17.058593 7.984376-10.171876 18.460938-15.117188 32.035157-15.117188 24.785156 0 44.953125 20.164062 44.953125 44.953125 0 12.789063-5.484375 25.015625-15.050782 33.546875-5.972656 5.332031-6.761718 14.394531-1.789062 20.675781l36.9375 46.660157c3.378906 4.269531 8.789062 6.390624 14.164062 5.5625 4.507813-.695313 9.121094-1.046876 13.710938-1.046876 19.867188 0 38.664062 6.402344 54.359375 18.511719 4.988281 3.847657 11.84375 4.199219 17.199219.886719l32.226562-19.945312c8.652344 14.300781 13.332032 30.832031 13.332032 47.699218 0 50.792969-41.324219 92.117188-92.117188 92.117188-29.226562 0-56.078125-13.414063-73.671875-36.804688-5.019531-6.671875-14.503906-8.015625-21.179687-2.992187-6.675782 5.019531-8.015626 14.503906-2.992188 21.179687 23.359375 31.054688 59.023438 48.867188 97.84375 48.867188 31.992188 0 61.152344-12.347656 82.976562-32.519532l50.824219 37.949219c-35.671875 39.574219-93.011719 61.382813-167.382812 61.382813zm0 0"/></svg>