<?xml version="1.0" encoding="iso-8859-1"?>
<!-- Generator: Adobe Illustrator 19.0.0, SVG Export Plug-In . SVG Version: 6.00 Build 0)  -->
<svg version="1.1" id="Capa_1" xmlns="http://www.w3.org/2000/svg" xmlns:xlink="http://www.w3.org/1999/xlink" x="0px" y="0px"
	 viewBox="0 0 512 512" style="enable-background:new 0 0 512 512;" xml:space="preserve">
<g>
	<g>
		<path d="M510.944,167.07c-4.121-35.941-19.871-61.748-44.349-72.667c-22.124-9.868-49.111-6.162-75.989,10.434
			c-24.609,15.194-47.793,40.369-65.6,71.148c-18.84-6.961-38.59-13.308-59.202-19.003c-46.203-12.764-86.821-19.584-113.356-23.604
			c-19.572-2.965-33.241-17.456-33.241-35.24V63.617c0-26.235-21.345-47.58-47.58-47.58c-30.655,0-55.596,24.94-55.596,55.596
			v64.128c0,4.143,3.357,7.5,7.5,7.5c4.143,0,7.5-3.357,7.5-7.5V95.681c0-4.705,3.827-8.532,8.532-8.532s8.532,3.827,8.532,8.532
			v16.032c0,19.419-8.911,33.302-19.229,49.378C15.337,182.174,0,206.069,0,247.984c0,27.998,5.731,53.353,17.034,75.363
			c10.702,20.84,26.412,38.739,46.694,53.205c26.166,18.662,59.834,31.469,99.029,37.893l15.675,26.123
			c4.786,7.975,12.922,13.384,21.969,14.88v25.515h-40.596c-4.143,0-7.5,3.357-7.5,7.5s3.357,7.5,7.5,7.5h72.144
			c4.143,0,7.5-3.357,7.5-7.5s-3.357-7.5-7.5-7.5H215.4v-25.719c9.399-1.899,17.474-7.974,21.887-16.8l9.98-19.959
			c47.219-3.082,81.037-15.738,94.029-35.614c7.28,0.275,14.677,0.419,22.199,0.418c14.023,0,28.475-0.492,43.305-1.451
			c8.664,9.962,17.403,21.026,25.904,33.252c1.407,2.024,3.713,3.218,6.156,3.218c0.18,0,0.359-0.007,0.54-0.02
			c2.641-0.19,4.985-1.759,6.169-4.126l19.939-39.879c1.104-2.207,1.051-4.815-0.14-6.976c-1.235-2.24-2.49-4.435-3.753-6.609
			l11.391-20.959c1.069-1.969,1.203-4.313,0.364-6.39c-1.6-3.961-3.53-8.136-5.652-12.374c8.664-12.627,16.343-26.357,22.827-40.893
			C507.657,241.719,514.902,201.583,510.944,167.07z M460.484,108.102c19.438,8.67,32.065,30.218,35.558,60.677
			c1.986,17.312,0.877,36.237-3.112,55.674h-75.161c0.012-0.176,0.034-0.351,0.034-0.529c-0.005-2.662-1.421-5.123-3.721-6.465
			c-1.532-0.894-3.096-1.77-4.649-2.652l28.039-51.403c1.983-3.637,0.644-8.192-2.992-10.176c-3.638-1.982-8.192-0.644-10.176,2.992
			l-26.336,48.283l-6.319-37.911c-0.682-4.085-4.535-6.848-8.632-6.165c-4.085,0.682-6.846,4.546-6.165,8.632l5.212,31.274
			c-13.643-6.699-27.948-13.002-42.863-18.909C373.423,123.584,424.832,92.201,460.484,108.102z M41.492,169.194
			c11.11-17.312,21.604-33.663,21.604-57.481V95.681c0-12.976-10.557-23.532-23.532-23.532c-3.008,0-5.886,0.567-8.532,1.601v-2.117
			c0-22.385,18.212-40.596,40.596-40.596c17.965,0,32.58,14.616,32.58,32.58v34.52c0,5.292,0.833,10.37,2.38,15.14
			c-10.727,1.875-26.162,9.298-32.482,35.505c-4.254,17.643-13.601,31.402-23.813,35.058c-5.144,1.843-10.729,1.126-16.65-2.103
			C36.202,177.442,38.855,173.302,41.492,169.194z M223.87,431.736c-2.821,5.643-8.492,9.147-14.801,9.147h-3.586
			c-5.779,0-11.218-3.078-14.19-8.033l-9.496-15.826c10.96,1.174,22.295,1.884,33.967,2.117c2.758,0.056,5.481,0.083,8.172,0.083
			c2.094,0,4.163-0.019,6.216-0.052L223.87,431.736z M253.784,356.123c-35.035-8.72-65.277-22.102-89.885-39.771
			c-21.799-15.655-35.068-31.865-42.362-42.708c-1.778-2.645-3.299-5.108-4.587-7.338c4.874,0.893,10.848,1.919,17.787,2.987
			c4.098,0.641,7.925-2.178,8.554-6.271c0.631-4.094-2.177-7.924-6.271-8.554c-19.6-3.02-31.524-5.75-31.643-5.777
			c-2.64-0.607-5.397,0.253-7.224,2.252c-1.825,1.999-2.432,4.825-1.588,7.396c0.486,1.48,12.422,36.62,57.511,69.419
			c26.122,19.002,58.118,33.358,95.101,42.673c22.468,5.659,46.839,9.445,72.919,11.368c-15.111,12.446-48.634,23.484-106.03,22.347
			c-59.105-1.183-108.771-14.947-143.627-39.806C34.324,337.157,15,298.009,15,247.984c0-22.481,4.838-39.021,11.516-53.037
			c6.673,3.631,12.75,4.904,17.989,4.904c4.191,0,7.848-0.814,10.844-1.887c18.02-6.449,29.037-27.818,33.34-45.665
			c5.978-24.792,21.385-25.034,25.432-24.646c8.15,10.694,20.819,18.245,36.083,20.557c26.154,3.963,66.179,10.682,111.608,23.232
			c49.937,13.796,94.682,31.429,133.228,52.491c-84.34,45.481-161.135,41.823-226.909,34.625c-4.1-0.441-7.821,2.521-8.271,6.639
			c-0.451,4.118,2.521,7.821,6.639,8.271c33.847,3.705,74.217,6.787,117.011,1.547c39.472-4.833,76.203-16.072,111.682-34.219
			c15.41,7.342,27.435,16.174,34.562,22.04c-84.804,47.824-207.634,33.31-208.905,33.15c-4.102-0.497-7.855,2.407-8.366,6.518
			c-0.512,4.11,2.406,7.857,6.517,8.368c1.037,0.129,19.648,2.392,47.455,2.392c9.699,0,20.523-0.275,32.103-1.013
			c8.081-0.515,15.995-1.247,23.763-2.148c4.898,2.714,36.135,20.743,71.412,57.442C341.312,370.021,294.28,366.202,253.784,356.123
			z M437.705,396.346c-34.761-46.879-71.506-75.57-92.265-89.554c9.237-1.603,18.19-3.493,26.81-5.675
			c7.07-1.79,13.924-3.776,20.554-5.952c8.486,8.567,35.546,37.275,57.511,75.962L437.705,396.346z M452.559,345.948
			c-16.946-26.175-34.456-46.034-44.271-56.383c6.304-2.497,12.371-5.185,18.191-8.058c6.308,9.258,22.934,34.375,31.624,54.24
			L452.559,345.948z M476.846,273.974c-5.02,11.254-10.788,21.99-17.201,32.047c-7.5-13.069-15.424-25.091-19.875-31.655
			c2.248-1.312,4.463-2.647,6.623-4.021c1.912-1.216,3.171-3.231,3.426-5.483s-0.521-4.498-2.113-6.11
			c-0.534-0.542-9.402-9.436-24.433-19.299h66.035C486.113,250.955,481.949,262.536,476.846,273.974z"/>
	</g>
</g>
<g>
	<g>
		<path d="M451.969,121.161c-3.638-1.984-8.191-0.644-10.175,2.993l-4.371,8.015c-1.984,3.636-0.644,8.193,2.993,10.175
			c1.141,0.622,2.371,0.917,3.584,0.917c2.656,0,5.229-1.414,6.591-3.91l4.371-8.015C456.945,127.7,455.606,123.144,451.969,121.161
			z"/>
	</g>
</g>
<g>
	<g>
		<circle cx="63.589" cy="55.599" r="7.5"/>
	</g>
</g>
<g>
</g>
<g>
</g>
<g>
</g>
<g>
</g>
<g>
</g>
<g>
</g>
<g>
</g>
<g>
</g>
<g>
</g>
<g>
</g>
<g>
</g>
<g>
</g>
<g>
</g>
<g>
</g>
<g>
</g>
</svg>
